# xmcd
#
# Track frame offsets:
#	150
#	23009
#	42024
#	58352
#	73689
#	87024
#	103017
#	117463
#	131230
#	149252
#	161551
#	177084
#	194252
#	210241
#	223701
#	242621
#	257935
#	277769
#
# Disc length: 3941 seconds
#
# Revision: 1
# Processed by: cddbd v1.4PL0 Copyright (c) Steve Scherf et al.
# Submitted via: audiograbber 1.80
#
DISCID=060f6312
DTITLE=Various Artist - Hott Country 71
DYEAR=1900
DGENRE=
TTITLE0=Alan Jackson - Where Were You When The World Stopped Turning
TTITLE1=Terri Clark - Empty
TTITLE2=Kenny Chesney - The Tin Man
TTITLE3=Trisha Yearwood and Don Henley - Inside Out
TTITLE4=Emerson Drive - I Should Be Sleeping
TTITLE5=Patty Loveless and Travis tritt - Out Of Control Raging Fire
TTITLE6=Chely Wright - Jexebel
TTITLE7=George Jones and Garth Brooks - Beer Run
TTITLE8=Martina McBride - Blessed
TTITLE9=Alan Jackson - It's Alright To Be A Redneck
TTITLE10=Robin English - Girl In Love
TTITLE11=Bruce Guthro - Livin'  A Lie
TTITLE12=BR5-49 - A Little Good News
TTITLE13=Blackhawk - Days Of America
TTITLE14=Deryl Dodd - One Ride In Vegas
TTITLE15=Ty Herndon - Heather's Wall
TTITLE16=Vince Gill - Hey God ( A Song For Payne )
TTITLE17=Leahy - Down That Road
EXTD=
EXTT0=
EXTT1=
EXTT2=
EXTT3=
EXTT4=
EXTT5=
EXTT6=
EXTT7=
EXTT8=
EXTT9=
EXTT10=
EXTT11=
EXTT12=
EXTT13=
EXTT14=
EXTT15=
EXTT16=
EXTT17=
PLAYORDER=
